<svg width="200" height="190" viewBox="80 50 900 900" fill="none" xmlns="http://www.w3.org/2000/svg">
<path fill-rule="evenodd" clip-rule="evenodd" d="M941.463 577.007L949.625 623.293C951.757 635.387 952.777 647.593 945.734 657.652C945.734 657.652 937.657 665.795 932.627 667.305L786.025 694.516C793.257 760.621 759.353 838.977 672.817 854.236C655.517 857.287 638.758 857.161 622.957 854.232C615.128 859.351 606.151 863.004 596.339 864.734L555.396 871.954C547.658 873.318 539.994 873.375 532.631 872.29C519.331 879.23 505.12 883.802 490.898 886.31C443.42 894.682 401.563 883.176 368.66 857.651C343.543 838.167 334.9 805.076 345.476 776.544C342.462 777.272 339.416 777.906 336.344 778.448L244.886 794.575C219.703 799.015 195.688 782.2 191.247 757.016L156.241 558.485C155.765 555.783 155.534 553.086 155.535 550.421C154.623 547.917 153.917 545.305 153.441 542.602L121.856 363.478C117.416 338.295 134.231 314.28 159.415 309.839L209.73 300.967C220.714 299.031 231.475 301.137 240.487 306.218C247.218 298.361 256.609 292.701 267.593 290.765L317.908 281.893C330.002 279.76 342.447 282.519 352.506 289.563C354.298 290.817 355.988 292.189 357.567 293.666C364.05 280.906 376.235 271.608 390.81 269.038L442.132 259.988C461.119 256.64 480.193 265.409 490.015 281.999L491.981 285.319C513.751 257.786 546.05 238.552 583.337 231.977C601.631 228.752 619.581 228.616 636.663 231.425C642.523 226.733 649.611 223.404 657.533 222.007L707.848 213.135C718.256 211.3 728.464 213.095 737.173 217.611C743.965 210.236 753.066 205.162 763.195 203.376L823.826 192.685C841.047 189.649 858.509 196.573 868.969 210.585C868.969 210.585 881.611 228.324 873.942 259.551L840.098 325.493L898.909 384.131C908.95 394.142 913.731 408.057 912.259 421.836C912.524 422.895 912.753 423.969 912.945 425.057L921.107 471.344C922.87 481.342 921.282 491.156 917.151 499.634C917.27 500.188 917.379 500.747 917.478 501.309L925.443 546.481C925.443 546.481 932.071 553.573 935.958 560.042C939.846 566.511 941.463 577.007 941.463 577.007Z" fill="#161616"/>
<path fill-rule="evenodd" clip-rule="evenodd" d="M624.265 466.825C569.421 476.496 519.689 444.539 510.284 391.205C500.88 337.87 536.269 291.423 591.113 281.752C619.038 276.828 644.076 282.011 663.889 294.341L636.374 333.952C626.771 326.567 614.267 323.324 598.92 326.03C572.002 330.777 556.372 352.469 561.606 382.155C566.885 412.093 589.036 427.383 615.955 422.636C631.049 419.975 642.031 413.11 649.239 402.5L688.894 430.267C673.738 448.763 654.203 461.546 624.265 466.825ZM696.894 450.906L665.309 271.782L715.625 262.91L729.687 342.66L770.972 253.151L831.602 242.46L783.494 338.879L865.954 421.096L805.575 431.742L731.861 354.988L747.209 442.034L696.894 450.906ZM398.587 318.813L361.993 509.958L413.315 500.909L418.055 468.945L481.453 457.766L496.587 486.225L548.916 476.999L449.909 309.763L398.587 318.813ZM461.451 420.827L424.469 427.347L433.533 368.422L461.451 420.827ZM198.775 538.738L167.191 359.614L217.506 350.742L229.306 417.662L287.169 407.459L275.369 340.539L325.685 331.667L357.269 510.791L306.954 519.663L294.533 449.221L236.67 459.424L249.091 529.866L198.775 538.738ZM717.07 463.725L752.076 662.257L903.762 635.51L895.601 589.223L799.682 606.137L793.978 573.792L879.581 558.697L871.616 513.526L786.013 528.62L780.999 500.179L875.245 483.561L867.083 437.274L717.07 463.725ZM617.556 612.329L603.194 532.681L543.802 543.153L535.444 495.751L710.274 464.924L718.632 512.326L658.961 522.847L674.759 608.868C710.397 618.707 734.848 651.372 741.403 688.549L741.476 688.963C750.219 738.548 726.165 791.969 669.412 801.976C647.236 805.886 627.564 801.914 611.301 792.667C610.342 802.394 603.031 810.694 592.934 812.474L551.991 819.694C544.338 821.043 536.91 818.327 531.92 813.097C520 824.045 504.454 831.06 487.493 834.05C453.445 840.054 425.612 831.869 403.768 814.923C394.349 807.617 392.321 794.205 399.159 784.441L419.938 754.765C420.914 753.371 422.037 752.105 423.281 750.984L418.843 741.678C416.73 737.247 416.174 732.344 417.094 727.705L415.488 727.988C409.65 729.017 403.642 727.685 398.786 724.285C393.93 720.885 390.623 715.694 389.594 709.856L386.073 689.889C380.506 713.444 359.458 731.486 328.04 737.026L236.582 753.152L201.576 554.621L296.38 537.905C332.628 531.513 360.492 549.313 365.9 579.985C368.998 597.551 363.649 612.87 350.116 624.169C369.25 630.363 381.681 644.236 385.985 663.323C389.069 657.31 394.833 652.761 402.001 651.497L430.349 646.498L428.676 637.342L338.531 530.472L402.663 519.164L446.71 574.936L469.025 507.462L531.763 496.4L484.049 625.278L486.201 636.65L506.633 633.047C518.791 630.903 530.384 639.021 532.528 651.179L537.596 679.921C538.73 686.351 536.995 692.956 532.849 697.999L525.017 707.524C525.852 708.03 526.678 708.558 527.496 709.11C536.407 715.12 543.374 723.301 547.946 733.436L565.628 730.318C564.797 727.175 564.095 723.987 563.527 720.766L563.454 720.353C555.694 676.341 573.93 629.356 617.556 612.329ZM287.845 580.81L263.307 585.137L269.797 621.943L294.335 617.617C306.046 615.552 313.936 608.123 311.724 595.575C309.511 583.028 299.835 578.696 287.845 580.81ZM303.629 655.654L276.582 660.423L284.154 703.363L311.201 698.594C325.421 696.087 333.197 686.378 330.837 672.994C328.477 659.61 317.85 653.146 303.629 655.654ZM548.109 797.681L540.999 757.358L581.942 750.139L589.052 790.461L548.109 797.681ZM596.696 747.537C593.279 741.795 590.488 735.483 588.4 728.739C587.216 724.918 586.259 720.958 585.54 716.885L585.467 716.471C578.248 675.528 598.25 636.608 639.4 629.352C680.55 622.096 712.171 651.488 719.39 692.431L719.463 692.844C726.682 733.787 706.887 772.671 665.53 779.963C641.601 784.183 621 776.108 606.488 760.623C602.82 756.708 599.541 752.32 596.696 747.537ZM531.591 759.017C532.486 770.171 529.629 780.256 523.815 788.628C515.585 800.48 501.429 808.896 483.611 812.037C465.496 815.232 450.112 813.545 436.953 808.406C432.436 806.643 428.181 804.472 424.168 801.953C421.856 800.501 419.624 798.934 417.469 797.262L438.248 767.586C438.732 767.932 439.215 768.27 439.699 768.602C442.957 770.835 446.207 772.729 449.474 774.253C457.941 778.201 466.527 779.656 475.698 778.039C487.071 776.034 493.287 768.968 491.72 760.076L491.647 759.663C490.006 750.358 480.543 746.269 465.448 748.931L448.492 751.921L439.019 732.057L467.025 696.203L411.607 705.975L405.882 673.51L510.515 655.06L515.583 683.803L486.264 719.462C495.1 719.833 503.482 721.512 510.589 725.072C517.206 728.387 522.719 733.333 526.467 740.374C528.479 744.154 529.982 748.539 530.875 753.599L530.947 754.012C531.245 755.702 531.459 757.371 531.591 759.017ZM473.201 755.657C473.201 755.657 473.185 755.667 473.147 755.682C473.182 755.664 473.201 755.657 473.201 755.657ZM659.673 744.323C675.802 741.479 683.26 723.321 679.213 700.368L679.14 699.954C675.093 677.001 661.18 662.184 645.258 664.992C629.336 667.799 621.634 685.788 625.717 708.948L625.79 709.361C629.874 732.521 643.543 747.168 659.673 744.323Z" fill="white"/>
<path fill-rule="evenodd" clip-rule="evenodd" d="M665.596 779.894C624.239 787.186 592.825 757.758 585.606 716.815L585.533 716.402C578.314 675.459 598.316 636.539 639.466 629.283C680.616 622.027 712.237 651.418 719.456 692.361L719.529 692.775C726.748 733.718 706.953 772.601 665.596 779.894ZM659.738 744.254C675.867 741.41 683.326 723.251 679.279 700.298L679.206 699.885C675.159 676.932 661.246 662.115 645.324 664.922C629.401 667.73 621.699 685.719 625.783 708.878L625.856 709.292C629.94 732.451 643.609 747.098 659.738 744.254ZM548.175 797.611L541.065 757.289L582.008 750.069L589.118 790.392L548.175 797.611ZM417.535 797.192C434.33 810.222 455.761 816.89 483.677 811.968C515.935 806.28 536.191 783.306 531.013 753.943L530.94 753.529C526.601 728.922 507.81 720.296 486.33 719.393L515.649 683.734L510.58 654.991L405.948 673.44L411.673 705.905L467.09 696.134L439.085 731.987L448.558 751.852L465.514 748.862C480.609 746.2 490.072 750.288 491.712 759.593L491.785 760.007C493.353 768.899 487.137 775.965 475.764 777.97C462.53 780.304 450.513 776.239 438.314 767.517L417.535 797.192Z" fill="#FF3044"/>
</svg>
